<?xml version="1.0" encoding="UTF-8" standalone="no"?>
<!DOCTYPE svg PUBLIC "-//W3C//DTD SVG 1.1//EN" "http://www.w3.org/Graphics/SVG/1.1/DTD/svg11.dtd">
<svg width="100%" height="100%" viewBox="0 0 182 54" version="1.1" xmlns="http://www.w3.org/2000/svg" xmlns:xlink="http://www.w3.org/1999/xlink" xml:space="preserve" xmlns:serif="http://www.serif.com/" style="fill-rule:evenodd;clip-rule:evenodd;stroke-linejoin:round;stroke-miterlimit:2;">
    <g transform="matrix(1.05552,-0.00203661,0.00203661,1.05552,-4.82749,-7.73996)">
        <path d="M8.488,24L8.488,23.616L10.912,22.656L10.912,9.48L7.12,9.48L5.416,13.104L5.032,13.104L5.032,8.16L19.288,8.16L19.288,13.104L18.904,13.104L17.224,9.48L13.408,9.48L13.408,22.656L15.856,23.616L15.856,24L8.488,24ZM38.937,24.24C37.785,24.24 36.713,24.04 35.721,23.64C34.745,23.224 33.889,22.656 33.153,21.936C32.432,21.2 31.872,20.336 31.473,19.344C31.073,18.352 30.872,17.264 30.872,16.08C30.872,14.896 31.073,13.808 31.473,12.816C31.872,11.824 32.432,10.968 33.153,10.248C33.889,9.512 34.745,8.944 35.721,8.544C36.713,8.128 37.785,7.92 38.937,7.92C40.089,7.92 41.153,8.128 42.129,8.544C43.121,8.944 43.977,9.512 44.697,10.248C45.433,10.968 46.001,11.824 46.401,12.816C46.817,13.808 47.025,14.896 47.025,16.08C47.025,17.264 46.817,18.352 46.401,19.344C46.001,20.336 45.433,21.2 44.697,21.936C43.977,22.656 43.121,23.224 42.129,23.64C41.153,24.04 40.089,24.24 38.937,24.24ZM39.417,23.04C40.393,23.04 41.249,22.784 41.984,22.272C42.721,21.76 43.297,21.04 43.713,20.112C44.129,19.184 44.337,18.088 44.337,16.824C44.337,15.272 44.081,13.92 43.569,12.768C43.057,11.6 42.361,10.696 41.481,10.056C40.6,9.416 39.625,9.096 38.553,9.096C37.577,9.096 36.713,9.352 35.961,9.864C35.209,10.36 34.617,11.072 34.185,12C33.769,12.928 33.561,14.024 33.561,15.288C33.561,16.84 33.817,18.2 34.329,19.368C34.856,20.536 35.561,21.44 36.441,22.08C37.337,22.72 38.329,23.04 39.417,23.04ZM59.018,24L59.018,23.616L60.962,22.656L60.962,9.504L59.018,8.544L59.018,8.16L65.474,8.16C66.546,8.16 67.506,8.296 68.354,8.568C69.218,8.824 69.89,9.216 70.37,9.744C70.866,10.256 71.114,10.912 71.114,11.712C71.114,12.528 70.834,13.28 70.274,13.968C69.714,14.64 68.906,15.12 67.85,15.408C69.306,15.6 70.442,16.048 71.258,16.752C72.09,17.44 72.506,18.32 72.506,19.392C72.506,20.272 72.226,21.064 71.666,21.768C71.106,22.456 70.338,23 69.362,23.4C68.386,23.8 67.274,24 66.026,24L59.018,24ZM64.778,9.48L63.482,9.48L63.482,15.192L64.898,15.192C66.034,15.192 66.914,14.944 67.538,14.448C68.162,13.952 68.474,13.272 68.474,12.408C68.474,10.456 67.242,9.48 64.778,9.48ZM65.666,16.464L63.482,16.464L63.482,22.68L65.834,22.68C67.066,22.68 68.034,22.392 68.738,21.816C69.458,21.224 69.818,20.472 69.818,19.56C69.818,18.488 69.458,17.704 68.738,17.208C68.018,16.712 66.994,16.464 65.666,16.464ZM84.169,24L84.169,23.616L86.137,22.656L86.137,9.504L84.169,8.544L84.169,8.16L90.577,8.16L90.577,8.544L88.633,9.504L88.633,22.656L90.577,23.616L90.577,24L84.169,24ZM101.822,24L101.822,23.616L103.334,22.824L109.502,8.04L110.822,8.04L116.918,22.752L118.526,23.616L118.526,24L112.19,24L112.19,23.616L114.302,22.776L112.526,18.456L106.742,18.456L104.99,22.8L107.006,23.616L107.006,24L101.822,24ZM107.294,17.136L111.998,17.136L109.646,11.352L107.294,17.136ZM134.626,24.24C133.618,24.24 132.754,24.144 132.034,23.952C131.33,23.76 130.602,23.48 129.85,23.112L129.61,19.152L129.994,19.152L131.266,21.768C131.826,22.232 132.378,22.568 132.922,22.776C133.466,22.984 134.01,23.088 134.554,23.088C135.482,23.088 136.21,22.848 136.738,22.368C137.282,21.888 137.554,21.232 137.554,20.4C137.554,19.744 137.402,19.224 137.098,18.84C136.81,18.44 136.37,18.088 135.778,17.784C135.202,17.464 134.49,17.096 133.642,16.68C132.506,16.136 131.634,15.568 131.026,14.976C130.418,14.368 130.114,13.52 130.114,12.432C130.114,11.856 130.25,11.304 130.522,10.776C130.81,10.232 131.194,9.752 131.674,9.336C132.154,8.904 132.69,8.56 133.282,8.304C133.874,8.048 134.49,7.92 135.13,7.92C135.882,7.92 136.586,8.008 137.242,8.184C137.898,8.36 138.546,8.616 139.186,8.952L139.426,12.792L139.042,12.792L137.794,10.224C137.282,9.824 136.818,9.536 136.402,9.36C135.986,9.184 135.514,9.096 134.986,9.096C134.298,9.096 133.722,9.328 133.258,9.792C132.81,10.256 132.586,10.84 132.586,11.544C132.586,12.328 132.826,12.944 133.306,13.392C133.802,13.84 134.594,14.32 135.682,14.832C136.642,15.296 137.434,15.744 138.058,16.176C138.698,16.592 139.17,17.064 139.474,17.592C139.778,18.12 139.93,18.792 139.93,19.608C139.93,20.36 139.77,21.024 139.45,21.6C139.13,22.176 138.706,22.664 138.178,23.064C137.65,23.448 137.074,23.744 136.45,23.952C135.842,24.144 135.234,24.24 134.626,24.24ZM5.44,58L5.44,57.616L7.384,56.656L7.384,43.504L5.44,42.544L5.44,42.16L12.16,42.16C14.048,42.16 15.56,42.504 16.696,43.192C17.848,43.88 18.424,44.968 18.424,46.456C18.424,47.336 18.12,48.12 17.512,48.808C16.92,49.48 16.112,50.016 15.088,50.416C14.064,50.8 12.896,50.992 11.584,50.992L9.904,50.992L9.904,56.656L12.112,57.616L12.112,58L5.44,58ZM9.904,43.48L9.904,49.72L11.728,49.72C12.992,49.72 13.984,49.432 14.704,48.856C15.424,48.28 15.784,47.544 15.784,46.648C15.784,45.528 15.416,44.72 14.68,44.224C13.96,43.728 12.92,43.48 11.56,43.48L9.904,43.48ZM38.21,58.24C37.058,58.24 35.986,58.04 34.994,57.64C34.018,57.224 33.162,56.656 32.426,55.936C31.706,55.2 31.146,54.336 30.746,53.344C30.346,52.352 30.146,51.264 30.146,50.08C30.146,48.896 30.346,47.808 30.746,46.816C31.146,45.824 31.706,44.968 32.426,44.248C33.162,43.512 34.018,42.944 34.994,42.544C35.986,42.128 37.058,41.92 38.21,41.92C39.362,41.92 40.426,42.128 41.402,42.544C42.394,42.944 43.25,43.512 43.97,44.248C44.706,44.968 45.274,45.824 45.674,46.816C46.09,47.808 46.298,48.896 46.298,50.08C46.298,51.264 46.09,52.352 45.674,53.344C45.274,54.336 44.706,55.2 43.97,55.936C43.25,56.656 42.394,57.224 41.402,57.64C40.426,58.04 39.362,58.24 38.21,58.24ZM38.69,57.04C39.666,57.04 40.522,56.784 41.258,56.272C41.994,55.76 42.57,55.04 42.986,54.112C43.402,53.184 43.61,52.088 43.61,50.824C43.61,49.272 43.354,47.92 42.842,46.768C42.33,45.6 41.634,44.696 40.754,44.056C39.874,43.416 38.898,43.096 37.826,43.096C36.85,43.096 35.986,43.352 35.234,43.864C34.482,44.36 33.89,45.072 33.458,46C33.042,46.928 32.834,48.024 32.834,49.288C32.834,50.84 33.09,52.2 33.602,53.368C34.13,54.536 34.834,55.44 35.714,56.08C36.61,56.72 37.602,57.04 38.69,57.04ZM35.714,40.36C35.362,40.36 35.066,40.248 34.826,40.024C34.602,39.784 34.49,39.488 34.49,39.136C34.49,38.784 34.602,38.496 34.826,38.272C35.066,38.032 35.362,37.912 35.714,37.912C36.066,37.912 36.354,38.032 36.578,38.272C36.818,38.496 36.938,38.784 36.938,39.136C36.938,39.488 36.818,39.784 36.578,40.024C36.354,40.248 36.066,40.36 35.714,40.36ZM40.226,40.36C39.874,40.36 39.578,40.248 39.338,40.024C39.098,39.784 38.978,39.488 38.978,39.136C38.978,38.784 39.098,38.496 39.338,38.272C39.578,38.032 39.874,37.912 40.226,37.912C40.578,37.912 40.866,38.032 41.09,38.272C41.33,38.496 41.45,38.784 41.45,39.136C41.45,39.488 41.33,39.784 41.09,40.024C40.866,40.248 40.578,40.36 40.226,40.36ZM58.292,58L58.292,57.616L60.236,56.656L60.236,43.504L58.292,42.544L58.292,42.16L64.964,42.16C66.644,42.16 67.964,42.512 68.924,43.216C69.9,43.904 70.388,44.856 70.388,46.072C70.388,46.968 70.084,47.76 69.476,48.448C68.868,49.136 68.068,49.664 67.076,50.032L71.612,56.728L73.22,57.616L73.22,58L69.356,58L64.748,50.704L62.756,50.704L62.756,56.632L64.556,57.616L64.556,58L58.292,58ZM64.172,43.48L62.756,43.48L62.756,49.432L64.316,49.432C65.308,49.432 66.124,49.152 66.764,48.592C67.42,48.016 67.748,47.288 67.748,46.408C67.748,45.496 67.428,44.784 66.788,44.272C66.164,43.744 65.292,43.48 64.172,43.48ZM86.347,58L86.347,57.616L88.771,56.656L88.771,43.48L84.979,43.48L83.275,47.104L82.891,47.104L82.891,42.16L97.147,42.16L97.147,47.104L96.763,47.104L95.083,43.48L91.267,43.48L91.267,56.656L93.715,57.616L93.715,58L86.347,58ZM108.516,58L108.516,57.616L110.46,56.656L110.46,43.552L108.54,42.544L108.54,42.16L112.308,42.16L121.5,53.464L121.5,43.48L119.028,42.544L119.028,42.16L125.1,42.16L125.1,42.544L123.18,43.48L123.18,58.12L122.148,58.12L112.14,45.832L112.14,56.68L114.612,57.616L114.612,58L108.516,58ZM136.667,58L136.667,57.616L138.611,56.656L138.611,43.504L136.667,42.544L136.667,42.16L148.715,42.16L148.715,46.288L148.331,46.288L146.771,43.48L141.131,43.48L141.131,49.168L145.115,49.168L146.339,47.152L146.723,47.152L146.723,52.456L146.339,52.456L145.115,50.488L141.131,50.488L141.131,56.68L147.419,56.68L149.003,53.512L149.387,53.512L149.387,58L136.667,58ZM161.487,58L161.487,57.616L163.431,56.656L163.431,43.504L161.487,42.544L161.487,42.16L168.159,42.16C169.839,42.16 171.159,42.512 172.119,43.216C173.095,43.904 173.583,44.856 173.583,46.072C173.583,46.968 173.279,47.76 172.671,48.448C172.063,49.136 171.263,49.664 170.271,50.032L174.807,56.728L176.415,57.616L176.415,58L172.551,58L167.943,50.704L165.951,50.704L165.951,56.632L167.751,57.616L167.751,58L161.487,58ZM167.367,43.48L165.951,43.48L165.951,49.432L167.511,49.432C168.503,49.432 169.319,49.152 169.959,48.592C170.615,48.016 170.943,47.288 170.943,46.408C170.943,45.496 170.623,44.784 169.983,44.272C169.359,43.744 168.487,43.48 167.367,43.48Z" style="fill-rule:nonzero;"/>
    </g>
</svg>
