<?xml version="1.0" standalone="no"?>
<!DOCTYPE svg PUBLIC "-//W3C//DTD SVG 20010904//EN"
 "http://www.w3.org/TR/2001/REC-SVG-20010904/DTD/svg10.dtd">
<svg version="1.0" xmlns="http://www.w3.org/2000/svg"
 width="700.000000pt" height="700.000000pt" viewBox="0 0 700.000000 700.000000"
 preserveAspectRatio="xMidYMid meet">
<metadata>
Created by potrace 1.14, written by Peter Selinger 2001-2017
</metadata>
<g transform="translate(0.000000,700.000000) scale(0.100000,-0.100000)"
fill="#000000" stroke="none">
<path d="M1920 4894 l0 -545 45 3 46 3 183 390 184 390 411 3 411 2 0 -1438 0
-1439 -262 -104 -263 -104 0 -45 0 -45 808 -3 807 -2 0 48 0 49 -265 104 -265
103 0 1438 0 1438 413 0 413 0 183 -395 184 -395 43 0 44 0 0 545 0 545 -1560
0 -1560 0 0 -546z"/>
</g>
</svg>
